<svg width="52" height="30" viewBox="0 0 52 30" fill="none" xmlns="http://www.w3.org/2000/svg">
<path fill-rule="evenodd" clip-rule="evenodd" d="M0.655272 15.2858C0.655272 15.7099 0.847836 16.1167 1.1906 16.4166C1.53337 16.7165 1.99826 16.885 2.483 16.885L45.5919 16.885L34.0881 26.9476C33.7449 27.2479 33.5521 27.6552 33.5521 28.0799C33.5521 28.5046 33.7449 28.9118 34.0881 29.2121C34.4313 29.5124 34.8968 29.6811 35.3822 29.6811C35.8675 29.6811 36.333 29.5124 36.6762 29.2121L51.298 16.418C51.4683 16.2695 51.6033 16.093 51.6954 15.8987C51.7876 15.7044 51.835 15.4961 51.835 15.2857C51.835 15.0754 51.7876 14.8671 51.6954 14.6728C51.6033 14.4785 51.4683 14.302 51.298 14.1535L36.6762 1.35935C36.333 1.05905 35.8675 0.890345 35.3822 0.890345C34.8968 0.890345 34.4313 1.05905 34.0881 1.35935C33.7449 1.65965 33.5521 2.06694 33.5521 2.49163C33.5521 2.91632 33.7449 3.32361 34.0881 3.62391L45.5919 13.6865L2.483 13.6865C1.99826 13.6865 1.53337 13.855 1.1906 14.1549C0.847836 14.4548 0.655272 14.8616 0.655272 15.2858Z" fill="white"/>
</svg>
